<mxfile host="Electron" modified="2023-07-05T03:27:01.258Z" agent="Mozilla/5.0 (Windows NT 10.0; Win64; x64) AppleWebKit/537.36 (KHTML, like Gecko) draw.io/21.2.8 Chrome/112.0.5615.165 Electron/24.2.0 Safari/537.36" etag="pRfyJDRIFP_XSK44JUtf" version="21.2.8" type="device">
  <diagram name="Page-1" id="cEgZsg0YI8wvJoWuWsUw">
    <mxGraphModel dx="1750" dy="1115" grid="1" gridSize="10" guides="1" tooltips="1" connect="1" arrows="1" fold="1" page="1" pageScale="1" pageWidth="850" pageHeight="1100" math="0" shadow="0">
      <root>
        <mxCell id="0" />
        <mxCell id="1" parent="0" />
        <mxCell id="pESgzzNxper7sRaL_fdL-4" value="" style="ellipse;whiteSpace=wrap;html=1;aspect=fixed;fontSize=30;" vertex="1" parent="1">
          <mxGeometry x="378" y="210" width="120" height="120" as="geometry" />
        </mxCell>
        <mxCell id="pESgzzNxper7sRaL_fdL-5" value="" style="ellipse;whiteSpace=wrap;html=1;aspect=fixed;fontSize=30;" vertex="1" parent="1">
          <mxGeometry x="378" y="360" width="120" height="120" as="geometry" />
        </mxCell>
        <mxCell id="pESgzzNxper7sRaL_fdL-6" value="" style="ellipse;whiteSpace=wrap;html=1;aspect=fixed;fontSize=30;" vertex="1" parent="1">
          <mxGeometry x="378" y="510" width="120" height="120" as="geometry" />
        </mxCell>
        <mxCell id="pESgzzNxper7sRaL_fdL-7" value="" style="rounded=0;whiteSpace=wrap;html=1;fontSize=30;" vertex="1" parent="1">
          <mxGeometry x="68" y="305" width="90" height="50" as="geometry" />
        </mxCell>
        <mxCell id="pESgzzNxper7sRaL_fdL-8" value="&lt;font style=&quot;font-size: 25px&quot;&gt;User&lt;/font&gt;" style="text;html=1;strokeColor=none;fillColor=none;align=center;verticalAlign=middle;whiteSpace=wrap;rounded=0;fontSize=30;" vertex="1" parent="1">
          <mxGeometry x="83" y="315" width="60" height="30" as="geometry" />
        </mxCell>
        <mxCell id="pESgzzNxper7sRaL_fdL-9" value="" style="rounded=0;whiteSpace=wrap;html=1;fontSize=30;" vertex="1" parent="1">
          <mxGeometry x="68" y="838" width="90" height="50" as="geometry" />
        </mxCell>
        <mxCell id="pESgzzNxper7sRaL_fdL-10" value="&lt;font style=&quot;font-size: 25px&quot;&gt;Admin&lt;/font&gt;" style="text;html=1;strokeColor=none;fillColor=none;align=center;verticalAlign=middle;whiteSpace=wrap;rounded=0;fontSize=30;" vertex="1" parent="1">
          <mxGeometry x="83" y="847.5" width="60" height="35" as="geometry" />
        </mxCell>
        <mxCell id="pESgzzNxper7sRaL_fdL-11" value="" style="endArrow=none;html=1;rounded=0;fontSize=30;entryX=0;entryY=0;entryDx=0;entryDy=0;exitX=1;exitY=0;exitDx=0;exitDy=0;" edge="1" parent="1" source="pESgzzNxper7sRaL_fdL-4" target="pESgzzNxper7sRaL_fdL-4">
          <mxGeometry width="50" height="50" relative="1" as="geometry">
            <mxPoint x="413" y="380" as="sourcePoint" />
            <mxPoint x="463" y="330" as="targetPoint" />
          </mxGeometry>
        </mxCell>
        <mxCell id="pESgzzNxper7sRaL_fdL-12" value="" style="endArrow=none;html=1;rounded=0;fontSize=30;exitX=1;exitY=0;exitDx=0;exitDy=0;" edge="1" parent="1">
          <mxGeometry width="50" height="50" relative="1" as="geometry">
            <mxPoint x="480.856406871193" y="380.0035931288071" as="sourcePoint" />
            <mxPoint x="393" y="380" as="targetPoint" />
          </mxGeometry>
        </mxCell>
        <mxCell id="pESgzzNxper7sRaL_fdL-13" value="" style="endArrow=none;html=1;rounded=0;fontSize=30;exitX=0;exitY=0;exitDx=0;exitDy=0;entryX=1;entryY=0;entryDx=0;entryDy=0;" edge="1" parent="1" source="pESgzzNxper7sRaL_fdL-6" target="pESgzzNxper7sRaL_fdL-6">
          <mxGeometry width="50" height="50" relative="1" as="geometry">
            <mxPoint x="480.856406871193" y="530.0035931288071" as="sourcePoint" />
            <mxPoint x="396.00359312880704" y="530.0035931288071" as="targetPoint" />
          </mxGeometry>
        </mxCell>
        <mxCell id="pESgzzNxper7sRaL_fdL-14" value="&lt;font style=&quot;font-size: 10px&quot;&gt;1.0&lt;/font&gt;" style="text;html=1;strokeColor=none;fillColor=none;align=center;verticalAlign=middle;whiteSpace=wrap;rounded=0;fontSize=30;" vertex="1" parent="1">
          <mxGeometry x="408" y="200" width="60" height="30" as="geometry" />
        </mxCell>
        <mxCell id="pESgzzNxper7sRaL_fdL-15" value="&lt;span style=&quot;color: rgb(0 , 0 , 0) ; font-family: &amp;#34;helvetica&amp;#34; ; font-size: 10px ; font-style: normal ; font-weight: 400 ; letter-spacing: normal ; text-align: center ; text-indent: 0px ; text-transform: none ; word-spacing: 0px ; background-color: rgb(248 , 249 , 250) ; display: inline ; float: none&quot;&gt;2.0&lt;/span&gt;" style="text;whiteSpace=wrap;html=1;fontSize=10;" vertex="1" parent="1">
          <mxGeometry x="428" y="360" width="20" height="30" as="geometry" />
        </mxCell>
        <mxCell id="pESgzzNxper7sRaL_fdL-16" value="&lt;div style=&quot;text-align: center&quot;&gt;&lt;span&gt;&lt;font face=&quot;helvetica&quot;&gt;3.0&lt;/font&gt;&lt;/span&gt;&lt;/div&gt;" style="text;whiteSpace=wrap;html=1;fontSize=10;" vertex="1" parent="1">
          <mxGeometry x="428" y="510" width="20" height="30" as="geometry" />
        </mxCell>
        <mxCell id="pESgzzNxper7sRaL_fdL-17" value="&lt;span style=&quot;font-size: 15px&quot;&gt;dataset_table&lt;/span&gt;" style="text;html=1;strokeColor=none;fillColor=none;align=center;verticalAlign=middle;whiteSpace=wrap;rounded=0;fontSize=10;" vertex="1" parent="1">
          <mxGeometry x="693" y="350" width="110" height="30" as="geometry" />
        </mxCell>
        <mxCell id="pESgzzNxper7sRaL_fdL-18" value="" style="endArrow=none;html=1;rounded=0;fontSize=10;" edge="1" parent="1">
          <mxGeometry width="50" height="50" relative="1" as="geometry">
            <mxPoint x="803" y="350" as="sourcePoint" />
            <mxPoint x="693" y="350" as="targetPoint" />
          </mxGeometry>
        </mxCell>
        <mxCell id="pESgzzNxper7sRaL_fdL-19" value="" style="endArrow=none;html=1;rounded=0;fontSize=10;" edge="1" parent="1">
          <mxGeometry width="50" height="50" relative="1" as="geometry">
            <mxPoint x="803" y="380" as="sourcePoint" />
            <mxPoint x="693" y="380" as="targetPoint" />
          </mxGeometry>
        </mxCell>
        <mxCell id="pESgzzNxper7sRaL_fdL-20" value="&lt;font style=&quot;font-size: 12px&quot;&gt;Login/Registration&lt;/font&gt;" style="text;html=1;strokeColor=none;fillColor=none;align=center;verticalAlign=middle;whiteSpace=wrap;rounded=0;" vertex="1" parent="1">
          <mxGeometry x="396" y="255" width="85" height="30" as="geometry" />
        </mxCell>
        <mxCell id="pESgzzNxper7sRaL_fdL-21" value="&lt;div style=&quot;text-align: center&quot;&gt;&lt;span&gt;&lt;font face=&quot;helvetica&quot;&gt;Webpage with input bars&lt;/font&gt;&lt;/span&gt;&lt;/div&gt;" style="text;whiteSpace=wrap;html=1;fontSize=12;" vertex="1" parent="1">
          <mxGeometry x="398" y="405" width="80" height="30" as="geometry" />
        </mxCell>
        <mxCell id="pESgzzNxper7sRaL_fdL-22" value="&lt;span style=&quot;color: rgb(0 , 0 , 0) ; font-family: &amp;#34;helvetica&amp;#34; ; font-size: 12px ; font-style: normal ; font-weight: 400 ; letter-spacing: normal ; text-align: center ; text-indent: 0px ; text-transform: none ; word-spacing: 0px ; background-color: rgb(248 , 249 , 250) ; display: inline ; float: none&quot;&gt;AI Processing&lt;/span&gt;" style="text;whiteSpace=wrap;html=1;fontSize=12;" vertex="1" parent="1">
          <mxGeometry x="397" y="555" width="82" height="30" as="geometry" />
        </mxCell>
        <mxCell id="pESgzzNxper7sRaL_fdL-23" value="" style="endArrow=classic;html=1;rounded=0;exitX=1;exitY=0.25;exitDx=0;exitDy=0;entryX=0.048;entryY=0.308;entryDx=0;entryDy=0;entryPerimeter=0;" edge="1" parent="1" source="pESgzzNxper7sRaL_fdL-7" target="pESgzzNxper7sRaL_fdL-4">
          <mxGeometry width="50" height="50" relative="1" as="geometry">
            <mxPoint x="413" y="463" as="sourcePoint" />
            <mxPoint x="463" y="413" as="targetPoint" />
          </mxGeometry>
        </mxCell>
        <mxCell id="pESgzzNxper7sRaL_fdL-24" value="" style="endArrow=classic;html=1;rounded=0;entryX=1;entryY=0.5;entryDx=0;entryDy=0;" edge="1" parent="1" target="pESgzzNxper7sRaL_fdL-7">
          <mxGeometry width="50" height="50" relative="1" as="geometry">
            <mxPoint x="373" y="263" as="sourcePoint" />
            <mxPoint x="393.76" y="256.96000000000004" as="targetPoint" />
          </mxGeometry>
        </mxCell>
        <mxCell id="pESgzzNxper7sRaL_fdL-25" value="&lt;div style=&quot;text-align: center&quot;&gt;&lt;font face=&quot;helvetica&quot;&gt;&lt;span style=&quot;font-size: 15px&quot;&gt;login_table&lt;/span&gt;&lt;/font&gt;&lt;/div&gt;" style="text;whiteSpace=wrap;html=1;" vertex="1" parent="1">
          <mxGeometry x="705.5" y="243" width="85" height="30" as="geometry" />
        </mxCell>
        <mxCell id="pESgzzNxper7sRaL_fdL-26" value="" style="endArrow=none;html=1;rounded=0;fontSize=10;" edge="1" parent="1">
          <mxGeometry width="50" height="50" relative="1" as="geometry">
            <mxPoint x="803" y="243" as="sourcePoint" />
            <mxPoint x="693" y="243" as="targetPoint" />
          </mxGeometry>
        </mxCell>
        <mxCell id="pESgzzNxper7sRaL_fdL-27" value="" style="endArrow=none;html=1;rounded=0;fontSize=10;" edge="1" parent="1">
          <mxGeometry width="50" height="50" relative="1" as="geometry">
            <mxPoint x="803" y="277.5" as="sourcePoint" />
            <mxPoint x="693" y="277.5" as="targetPoint" />
          </mxGeometry>
        </mxCell>
        <mxCell id="pESgzzNxper7sRaL_fdL-28" value="" style="endArrow=classic;html=1;rounded=0;exitX=0;exitY=0.75;exitDx=0;exitDy=0;" edge="1" parent="1" source="pESgzzNxper7sRaL_fdL-9">
          <mxGeometry width="50" height="50" relative="1" as="geometry">
            <mxPoint x="413" y="463" as="sourcePoint" />
            <mxPoint x="773" y="243" as="targetPoint" />
            <Array as="points">
              <mxPoint x="23" y="876" />
              <mxPoint x="23" y="123" />
              <mxPoint x="773" y="123" />
            </Array>
          </mxGeometry>
        </mxCell>
        <mxCell id="pESgzzNxper7sRaL_fdL-29" value="&lt;span style=&quot;color: rgb(0 , 0 , 0) ; font-family: &amp;#34;helvetica&amp;#34; ; font-size: 12px ; font-style: normal ; font-weight: 400 ; letter-spacing: normal ; text-align: center ; text-indent: 0px ; text-transform: none ; word-spacing: 0px ; background-color: rgb(248 , 249 , 250) ; display: inline ; float: none&quot;&gt;Login/Registration&lt;/span&gt;" style="text;whiteSpace=wrap;html=1;rotation=-20;" vertex="1" parent="1">
          <mxGeometry x="203" y="255" width="100" height="30" as="geometry" />
        </mxCell>
        <mxCell id="pESgzzNxper7sRaL_fdL-30" value="&lt;span style=&quot;color: rgb(0 , 0 , 0) ; font-family: &amp;#34;helvetica&amp;#34; ; font-size: 12px ; font-style: normal ; font-weight: 400 ; letter-spacing: normal ; text-align: center ; text-indent: 0px ; text-transform: none ; word-spacing: 0px ; background-color: rgb(248 , 249 , 250) ; display: inline ; float: none&quot;&gt;Confirmation&lt;/span&gt;" style="text;whiteSpace=wrap;html=1;rotation=-20;" vertex="1" parent="1">
          <mxGeometry x="233" y="300" width="60" height="30" as="geometry" />
        </mxCell>
        <mxCell id="pESgzzNxper7sRaL_fdL-31" value="&lt;div style=&quot;text-align: center&quot;&gt;&lt;span&gt;&lt;font face=&quot;helvetica&quot;&gt;Stores and retrieves data&lt;/font&gt;&lt;/span&gt;&lt;/div&gt;" style="text;whiteSpace=wrap;html=1;" vertex="1" parent="1">
          <mxGeometry x="368" y="93" width="140" height="30" as="geometry" />
        </mxCell>
        <mxCell id="pESgzzNxper7sRaL_fdL-35" value="" style="ellipse;whiteSpace=wrap;html=1;aspect=fixed;fontSize=30;" vertex="1" parent="1">
          <mxGeometry x="378.5" y="663" width="120" height="120" as="geometry" />
        </mxCell>
        <mxCell id="pESgzzNxper7sRaL_fdL-36" value="" style="endArrow=classic;html=1;rounded=0;exitX=0;exitY=0.5;exitDx=0;exitDy=0;" edge="1" parent="1" source="pESgzzNxper7sRaL_fdL-9">
          <mxGeometry width="50" height="50" relative="1" as="geometry">
            <mxPoint x="78" y="500" as="sourcePoint" />
            <mxPoint x="743" y="243" as="targetPoint" />
            <Array as="points">
              <mxPoint x="33" y="863" />
              <mxPoint x="33" y="490" />
              <mxPoint x="33" y="163" />
              <mxPoint x="743" y="163" />
            </Array>
          </mxGeometry>
        </mxCell>
        <mxCell id="pESgzzNxper7sRaL_fdL-37" value="" style="endArrow=classic;html=1;rounded=0;entryX=0;entryY=0.25;entryDx=0;entryDy=0;" edge="1" parent="1" target="pESgzzNxper7sRaL_fdL-9">
          <mxGeometry width="50" height="50" relative="1" as="geometry">
            <mxPoint x="713" y="243" as="sourcePoint" />
            <mxPoint x="348.76" y="355.00000000000006" as="targetPoint" />
            <Array as="points">
              <mxPoint x="713" y="203" />
              <mxPoint x="43" y="203" />
              <mxPoint x="43" y="478" />
              <mxPoint x="43" y="851" />
            </Array>
          </mxGeometry>
        </mxCell>
        <mxCell id="pESgzzNxper7sRaL_fdL-38" value="&lt;span style=&quot;color: rgb(0 , 0 , 0) ; font-family: &amp;#34;helvetica&amp;#34; ; font-size: 12px ; font-style: normal ; font-weight: 400 ; letter-spacing: normal ; text-align: center ; text-indent: 0px ; text-transform: none ; word-spacing: 0px ; background-color: rgb(248 , 249 , 250) ; display: inline ; float: none&quot;&gt;Login&lt;/span&gt;" style="text;whiteSpace=wrap;html=1;" vertex="1" parent="1">
          <mxGeometry x="423" y="133" width="30" height="30" as="geometry" />
        </mxCell>
        <mxCell id="pESgzzNxper7sRaL_fdL-39" value="&lt;span style=&quot;color: rgb(0 , 0 , 0) ; font-family: &amp;#34;helvetica&amp;#34; ; font-size: 12px ; font-style: normal ; font-weight: 400 ; letter-spacing: normal ; text-align: center ; text-indent: 0px ; text-transform: none ; word-spacing: 0px ; background-color: rgb(248 , 249 , 250) ; display: inline ; float: none&quot;&gt;Confirmation&lt;/span&gt;" style="text;whiteSpace=wrap;html=1;" vertex="1" parent="1">
          <mxGeometry x="403" y="170" width="70" height="30" as="geometry" />
        </mxCell>
        <mxCell id="pESgzzNxper7sRaL_fdL-40" value="" style="endArrow=classic;html=1;rounded=0;exitX=1;exitY=0.75;exitDx=0;exitDy=0;entryX=0.028;entryY=0.318;entryDx=0;entryDy=0;entryPerimeter=0;" edge="1" parent="1" source="pESgzzNxper7sRaL_fdL-7" target="pESgzzNxper7sRaL_fdL-5">
          <mxGeometry width="50" height="50" relative="1" as="geometry">
            <mxPoint x="133" y="430.53999999999996" as="sourcePoint" />
            <mxPoint x="358.76" y="360.00000000000006" as="targetPoint" />
          </mxGeometry>
        </mxCell>
        <mxCell id="pESgzzNxper7sRaL_fdL-41" value="" style="endArrow=classic;html=1;rounded=0;exitX=0;exitY=0.5;exitDx=0;exitDy=0;entryX=0.75;entryY=1;entryDx=0;entryDy=0;" edge="1" parent="1" source="pESgzzNxper7sRaL_fdL-5" target="pESgzzNxper7sRaL_fdL-7">
          <mxGeometry width="50" height="50" relative="1" as="geometry">
            <mxPoint x="178" y="337.5" as="sourcePoint" />
            <mxPoint x="403.76" y="266.96000000000004" as="targetPoint" />
          </mxGeometry>
        </mxCell>
        <mxCell id="pESgzzNxper7sRaL_fdL-42" value="&lt;div style=&quot;text-align: center&quot;&gt;&lt;font face=&quot;helvetica&quot;&gt;Input news&lt;/font&gt;&lt;/div&gt;" style="text;whiteSpace=wrap;html=1;rotation=15;" vertex="1" parent="1">
          <mxGeometry x="252.99999999999997" y="345" width="70" height="30" as="geometry" />
        </mxCell>
        <mxCell id="pESgzzNxper7sRaL_fdL-43" value="&lt;span style=&quot;color: rgb(0, 0, 0); font-family: helvetica; font-size: 12px; font-style: normal; font-weight: 400; letter-spacing: normal; text-align: center; text-indent: 0px; text-transform: none; word-spacing: 0px; background-color: rgb(248, 249, 250); display: inline; float: none;&quot;&gt;Confirmation&lt;/span&gt;" style="text;whiteSpace=wrap;html=1;rotation=15;" vertex="1" parent="1">
          <mxGeometry x="233" y="390" width="69.83" height="30" as="geometry" />
        </mxCell>
        <mxCell id="pESgzzNxper7sRaL_fdL-44" value="&lt;span style=&quot;color: rgb(0 , 0 , 0) ; font-family: &amp;quot;helvetica&amp;quot; ; font-size: 12px ; font-style: normal ; font-weight: 400 ; letter-spacing: normal ; text-align: center ; text-indent: 0px ; text-transform: none ; word-spacing: 0px ; background-color: rgb(248 , 249 , 250) ; display: inline ; float: none&quot;&gt;Prediction about rainfall&lt;/span&gt;" style="text;whiteSpace=wrap;html=1;" vertex="1" parent="1">
          <mxGeometry x="158" y="693" width="177" height="30" as="geometry" />
        </mxCell>
        <mxCell id="pESgzzNxper7sRaL_fdL-45" value="&lt;div style=&quot;text-align: center&quot;&gt;&lt;br&gt;&lt;/div&gt;" style="text;whiteSpace=wrap;html=1;" vertex="1" parent="1">
          <mxGeometry x="158" y="571" width="162" height="30" as="geometry" />
        </mxCell>
        <mxCell id="pESgzzNxper7sRaL_fdL-46" value="&lt;div style=&quot;text-align: center&quot;&gt;&lt;span&gt;&lt;font face=&quot;helvetica&quot;&gt;4.0&lt;/font&gt;&lt;/span&gt;&lt;/div&gt;" style="text;whiteSpace=wrap;html=1;fontSize=10;" vertex="1" parent="1">
          <mxGeometry x="428" y="663" width="20" height="30" as="geometry" />
        </mxCell>
        <mxCell id="pESgzzNxper7sRaL_fdL-47" value="" style="endArrow=none;html=1;rounded=0;exitX=0;exitY=0;exitDx=0;exitDy=0;entryX=1;entryY=0;entryDx=0;entryDy=0;" edge="1" parent="1" source="pESgzzNxper7sRaL_fdL-35" target="pESgzzNxper7sRaL_fdL-35">
          <mxGeometry width="50" height="50" relative="1" as="geometry">
            <mxPoint x="370" y="681" as="sourcePoint" />
            <mxPoint x="420" y="631" as="targetPoint" />
          </mxGeometry>
        </mxCell>
        <mxCell id="pESgzzNxper7sRaL_fdL-48" value="&lt;span style=&quot;color: rgb(0 , 0 , 0) ; font-family: &amp;#34;helvetica&amp;#34; ; font-size: 12px ; font-style: normal ; font-weight: 400 ; letter-spacing: normal ; text-align: center ; text-indent: 0px ; text-transform: none ; word-spacing: 0px ; background-color: rgb(248 , 249 , 250) ; display: inline ; float: none&quot;&gt;Final Result&lt;/span&gt;" style="text;whiteSpace=wrap;html=1;" vertex="1" parent="1">
          <mxGeometry x="402.25" y="708" width="71.5" height="30" as="geometry" />
        </mxCell>
        <mxCell id="pESgzzNxper7sRaL_fdL-49" value="" style="endArrow=classic;html=1;rounded=0;exitX=0;exitY=0.5;exitDx=0;exitDy=0;entryX=0.5;entryY=1;entryDx=0;entryDy=0;" edge="1" parent="1" source="pESgzzNxper7sRaL_fdL-35" target="pESgzzNxper7sRaL_fdL-7">
          <mxGeometry width="50" height="50" relative="1" as="geometry">
            <mxPoint x="388" y="430" as="sourcePoint" />
            <mxPoint x="145.5" y="365" as="targetPoint" />
            <Array as="points">
              <mxPoint x="113" y="723" />
            </Array>
          </mxGeometry>
        </mxCell>
        <mxCell id="pESgzzNxper7sRaL_fdL-50" value="" style="endArrow=classic;html=1;rounded=0;exitX=1;exitY=0.25;exitDx=0;exitDy=0;entryX=1;entryY=1;entryDx=0;entryDy=0;" edge="1" parent="1" source="pESgzzNxper7sRaL_fdL-9" target="pESgzzNxper7sRaL_fdL-6">
          <mxGeometry width="50" height="50" relative="1" as="geometry">
            <mxPoint x="340" y="661" as="sourcePoint" />
            <mxPoint x="390" y="611" as="targetPoint" />
            <Array as="points">
              <mxPoint x="600" y="851" />
              <mxPoint x="600" y="612" />
            </Array>
          </mxGeometry>
        </mxCell>
        <mxCell id="pESgzzNxper7sRaL_fdL-51" value="" style="endArrow=classic;html=1;rounded=0;exitX=0.967;exitY=0.718;exitDx=0;exitDy=0;entryX=1;entryY=0.5;entryDx=0;entryDy=0;exitPerimeter=0;" edge="1" parent="1" source="pESgzzNxper7sRaL_fdL-6" target="pESgzzNxper7sRaL_fdL-9">
          <mxGeometry width="50" height="50" relative="1" as="geometry">
            <mxPoint x="398" y="440" as="sourcePoint" />
            <mxPoint x="155.5" y="375" as="targetPoint" />
            <Array as="points">
              <mxPoint x="620" y="596" />
              <mxPoint x="620" y="863" />
            </Array>
          </mxGeometry>
        </mxCell>
        <mxCell id="pESgzzNxper7sRaL_fdL-52" value="&lt;span style=&quot;color: rgb(0 , 0 , 0) ; font-family: &amp;#34;helvetica&amp;#34; ; font-size: 12px ; font-style: normal ; font-weight: 400 ; letter-spacing: normal ; text-align: center ; text-indent: 0px ; text-transform: none ; word-spacing: 0px ; background-color: rgb(248 , 249 , 250) ; display: inline ; float: none&quot;&gt;Data Processing&lt;/span&gt;" style="text;whiteSpace=wrap;html=1;" vertex="1" parent="1">
          <mxGeometry x="308" y="817.5" width="100" height="30" as="geometry" />
        </mxCell>
        <mxCell id="pESgzzNxper7sRaL_fdL-53" value="&lt;div style=&quot;text-align: center&quot;&gt;&lt;font face=&quot;helvetica&quot;&gt;Classifier Training Data Accuracy&lt;/font&gt;&lt;/div&gt;" style="text;whiteSpace=wrap;html=1;" vertex="1" parent="1">
          <mxGeometry x="260" y="858" width="182" height="30" as="geometry" />
        </mxCell>
        <mxCell id="pESgzzNxper7sRaL_fdL-56" value="" style="endArrow=classic;html=1;rounded=0;entryX=0.5;entryY=1;entryDx=0;entryDy=0;exitX=0.378;exitY=1.036;exitDx=0;exitDy=0;exitPerimeter=0;" edge="1" parent="1" source="pESgzzNxper7sRaL_fdL-9" target="pESgzzNxper7sRaL_fdL-17">
          <mxGeometry width="50" height="50" relative="1" as="geometry">
            <mxPoint x="103" y="895" as="sourcePoint" />
            <mxPoint x="770" y="375" as="targetPoint" />
            <Array as="points">
              <mxPoint x="103" y="985" />
              <mxPoint x="748" y="980" />
              <mxPoint x="748" y="405" />
            </Array>
          </mxGeometry>
        </mxCell>
        <mxCell id="pESgzzNxper7sRaL_fdL-57" value="" style="endArrow=classic;html=1;rounded=0;entryX=0.25;entryY=1;entryDx=0;entryDy=0;" edge="1" parent="1" target="pESgzzNxper7sRaL_fdL-9">
          <mxGeometry width="50" height="50" relative="1" as="geometry">
            <mxPoint x="760" y="385" as="sourcePoint" />
            <mxPoint x="430" y="685" as="targetPoint" />
            <Array as="points">
              <mxPoint x="760" y="395" />
              <mxPoint x="760" y="995" />
              <mxPoint x="91" y="995" />
            </Array>
          </mxGeometry>
        </mxCell>
        <mxCell id="pESgzzNxper7sRaL_fdL-59" value="&lt;span style=&quot;color: rgb(0 , 0 , 0) ; font-family: &amp;quot;helvetica&amp;quot; ; font-size: 12px ; font-style: normal ; font-weight: 400 ; letter-spacing: normal ; text-align: center ; text-indent: 0px ; text-transform: none ; word-spacing: 0px ; background-color: rgb(248 , 249 , 250) ; display: inline ; float: none&quot;&gt;Manages dataset table&lt;/span&gt;" style="text;whiteSpace=wrap;html=1;" vertex="1" parent="1">
          <mxGeometry x="372.25" y="950" width="131.5" height="30" as="geometry" />
        </mxCell>
        <mxCell id="pESgzzNxper7sRaL_fdL-61" value="&lt;span style=&quot;color: rgb(0, 0, 0); font-family: helvetica; font-size: 12px; font-style: normal; font-weight: 400; letter-spacing: normal; text-align: center; text-indent: 0px; text-transform: none; word-spacing: 0px; background-color: rgb(248, 249, 250); display: inline; float: none;&quot;&gt;Confirmation&lt;/span&gt;" style="text;whiteSpace=wrap;html=1;" vertex="1" parent="1">
          <mxGeometry x="404" y="995" width="69" height="30" as="geometry" />
        </mxCell>
        <mxCell id="pESgzzNxper7sRaL_fdL-63" value="" style="endArrow=classic;html=1;rounded=0;entryX=1;entryY=0;entryDx=0;entryDy=0;exitX=0.25;exitY=1;exitDx=0;exitDy=0;" edge="1" parent="1" source="pESgzzNxper7sRaL_fdL-17" target="pESgzzNxper7sRaL_fdL-6">
          <mxGeometry width="50" height="50" relative="1" as="geometry">
            <mxPoint x="690" y="385" as="sourcePoint" />
            <mxPoint x="508" y="580" as="targetPoint" />
          </mxGeometry>
        </mxCell>
        <mxCell id="pESgzzNxper7sRaL_fdL-64" value="&lt;span style=&quot;color: rgb(0 , 0 , 0) ; font-family: &amp;#34;helvetica&amp;#34; ; font-size: 12px ; font-style: normal ; font-weight: 400 ; letter-spacing: normal ; text-align: center ; text-indent: 0px ; text-transform: none ; word-spacing: 0px ; background-color: rgb(248 , 249 , 250) ; display: inline ; float: none&quot;&gt;Training and Testing Process&lt;/span&gt;" style="text;whiteSpace=wrap;html=1;rotation=-30;" vertex="1" parent="1">
          <mxGeometry x="498.5" y="435" width="180" height="30" as="geometry" />
        </mxCell>
        <mxCell id="pESgzzNxper7sRaL_fdL-66" value="" style="endArrow=classic;html=1;rounded=0;exitX=0.5;exitY=1;exitDx=0;exitDy=0;entryX=0.5;entryY=0;entryDx=0;entryDy=0;" edge="1" parent="1" source="pESgzzNxper7sRaL_fdL-6" target="pESgzzNxper7sRaL_fdL-46">
          <mxGeometry width="50" height="50" relative="1" as="geometry">
            <mxPoint x="350" y="715" as="sourcePoint" />
            <mxPoint x="400" y="665" as="targetPoint" />
          </mxGeometry>
        </mxCell>
      </root>
    </mxGraphModel>
  </diagram>
</mxfile>
